<?xml version="1.0" encoding="UTF-8" standalone="no"?>
<!DOCTYPE svg PUBLIC "-//W3C//DTD SVG 1.1//EN" "http://www.w3.org/Graphics/SVG/1.1/DTD/svg11.dtd">
<svg width="100%" height="100%" viewBox="0 0 3750 3750" version="1.1" xmlns="http://www.w3.org/2000/svg" xmlns:xlink="http://www.w3.org/1999/xlink" xml:space="preserve" xmlns:serif="http://www.serif.com/" style="fill-rule:evenodd;clip-rule:evenodd;stroke-linecap:round;stroke-miterlimit:2;">
    <g transform="matrix(5.02125,0,0,5.02125,-232.801,-414.529)">
        <path d="M669.267,747.949L233.871,747.949C226.114,747.949 219.768,743.815 219.768,738.761C219.768,733.707 226.114,729.572 233.871,729.572L282.058,729.572C285.575,731.872 289.197,733.898 292.926,735.642C292.928,735.643 292.93,735.644 292.932,735.644C292.954,735.655 292.979,735.666 293.001,735.677C293.01,735.681 293.021,735.686 293.03,735.69C293.045,735.697 293.062,735.705 293.077,735.712C293.093,735.72 293.112,735.728 293.129,735.736C293.136,735.739 293.145,735.743 293.152,735.747C293.176,735.758 293.203,735.771 293.227,735.782L293.228,735.782C302.801,740.214 313.042,742.768 323.799,743.181L323.794,743.24L353.723,743.24C369.966,743.24 385.872,738.391 400.809,729.572L410.066,729.572C410.178,729.776 410.296,729.975 410.418,730.17C411.455,729.977 412.492,729.779 413.528,729.572L414.008,729.572C412.863,729.86 411.712,730.129 410.558,730.388C412.408,733.195 415.315,735.014 418.601,735.021L442.243,735.044C444.444,734.034 446.622,732.977 448.77,731.863C447.642,732.944 446.488,733.996 445.331,735.047L479.661,735.08C481.173,733.257 482.668,731.422 484.143,729.572L669.267,729.572C677.024,729.572 683.371,733.707 683.371,738.761C683.371,743.815 677.024,747.949 669.267,747.949Z" style="fill:rgb(184,176,199);fill-rule:nonzero;"/>
        <path d="M621.16,512.544L678.761,463.491C707.31,439.439 729.637,415.7 745.112,392.944C762.023,368.074 771.357,343.5 772.852,319.903C773.721,303.576 770.46,289.141 763.645,277.919C770.468,289.144 773.733,303.586 772.864,319.923C771.368,343.521 762.035,368.094 745.124,392.964C729.649,415.72 707.322,439.459 678.773,463.511L621.173,512.565C615.212,519.688 613.712,526.946 616.838,533.564C617.137,534.196 617.468,534.806 617.827,535.392C617.463,534.799 617.128,534.183 616.826,533.544C613.7,526.926 615.2,519.669 621.16,512.544ZM703.926,269.645C715.307,259.945 731.326,259.163 744.735,267.654C750.457,271.278 755.164,276.198 758.746,282.159C755.165,276.207 750.463,271.294 744.747,267.674C731.338,259.183 715.319,259.965 703.938,269.665C690.411,281.193 690.399,281.173 703.926,269.645ZM623.836,552.949L625.154,550.259C620.231,548.063 615.64,544.111 612.672,539.136C615.64,544.102 620.225,548.046 625.142,550.239L628.189,544.018L628.207,544.026L630.453,539.441C621.031,534.881 614.176,523.203 633.67,510.143C721.459,444.842 780.218,372.076 779.261,318.764C784.134,232.375 664.548,213.759 680.026,330.944L696.497,331.018C675.194,262.658 758.926,237.471 761.14,318.702C752.536,395.935 685.005,437.081 615.147,502.163C591.191,525.568 608.129,551.017 623.836,552.949Z" style="fill:rgb(253,207,5);fill-rule:nonzero;"/>
        <path d="M615.049,501.948C684.908,436.866 752.439,395.721 761.043,318.488C758.829,237.257 675.189,262.629 696.492,330.989L690.294,330.991C685.549,303.202 690.314,280.979 703.841,269.451C715.222,259.75 731.241,258.969 744.65,267.46C759.901,277.117 767.939,295.988 766.703,319.233C763.984,362.108 733.161,408.676 675.093,457.599L617.082,507L616.911,507.203C606.039,520.015 608.799,531.209 611.411,536.741C614.244,542.739 620.195,546.261 625.818,548.769L623.842,552.96C608.136,551.028 591.094,525.354 615.049,501.948Z" style="fill:rgb(221,152,39);fill-rule:nonzero;"/>
        <path d="M431.216,532.465C430.918,533.107 430.587,533.726 430.227,534.322C430.582,533.732 430.91,533.12 431.204,532.486C434.288,525.841 432.742,518.596 426.736,511.523L368.824,462.967C340.122,439.161 317.644,415.615 302.024,392.992C284.955,368.268 275.464,343.776 273.818,320.192C272.845,303.863 276.018,289.393 282.769,278.109C276.026,289.39 272.857,303.853 273.83,320.172C275.476,343.756 284.967,368.248 302.036,392.972C317.656,415.595 340.134,439.141 368.835,462.947L426.748,511.503C432.754,518.576 434.3,525.82 431.216,532.465ZM342.422,269.342C330.979,259.74 314.955,259.097 301.601,267.703C295.908,271.371 291.237,276.325 287.695,282.308C291.239,276.316 295.914,271.355 301.613,267.683C314.967,259.077 330.991,259.72 342.434,269.322C356.033,280.734 356.022,280.754 342.422,269.342ZM432.695,501.07C362.423,436.591 294.631,396.027 285.534,318.87C287.229,237.622 371.12,262.089 350.254,330.63L366.724,330.414C381.454,213.099 261.989,232.743 267.415,319.088C266.798,372.407 326.02,444.665 414.224,509.209C433.8,522.101 427.02,533.838 417.627,538.479L419.902,543.045L419.92,543.037L423.007,549.23C427.91,546.996 432.469,543.013 435.406,538.021C432.47,543.022 427.904,547.013 422.995,549.251L424.33,551.93C440.024,549.863 456.799,524.269 432.695,501.07Z" style="fill:rgb(253,207,5);fill-rule:nonzero;"/>
        <path d="M432.791,500.855C362.519,436.376 294.727,395.812 285.63,318.655C287.325,237.407 371.125,262.06 350.259,330.6L356.457,330.549C361.024,302.72 356.117,280.539 342.518,269.127C331.075,259.525 315.051,258.881 301.696,267.488C286.507,277.276 278.59,296.215 279.975,319.449C282.967,362.3 314.087,408.601 372.466,457.023L430.79,505.925L430.963,506.125C441.917,518.844 439.228,530.061 436.651,535.616C433.857,541.637 427.928,545.21 422.322,547.767L424.324,551.941C440.018,549.874 456.895,524.055 432.791,500.855Z" style="fill:rgb(221,152,39);fill-rule:nonzero;"/>
        <path d="M363.369,240.591C366.887,372.023 403.488,480.91 475.558,549.648C479.603,553.522 483.77,557.267 488.05,560.855C488.968,561.648 489.898,562.415 490.828,563.182C494.391,566.107 498.021,568.955 501.74,571.699C501.774,572.036 501.819,572.374 501.863,572.712L547.561,572.712C547.595,572.361 547.64,572.023 547.673,571.699C548.67,570.957 549.656,570.216 550.642,569.462C552.087,568.357 553.533,567.239 554.956,566.095C555.762,565.457 556.569,564.807 557.364,564.145C640.212,496.81 680.152,381.683 683.77,240.591C683.826,238.225 683.289,236.002 682.291,234.13C680.51,230.763 677.306,228.5 673.642,228.5L373.508,228.5C369.833,228.5 366.629,230.763 364.859,234.13C363.862,236.002 363.313,238.225 363.369,240.591Z" style="fill:rgb(253,207,5);fill-rule:nonzero;"/>
        <path d="M632.344,721.152L632.344,723.732C632.224,730.092 627.734,735.212 622.204,735.212L418.604,735.022C413.004,735.012 408.474,729.752 408.474,723.252L408.474,721.342C408.474,719.612 408.794,717.962 409.384,716.482C410.944,712.512 414.354,709.732 418.354,709.592C456.264,708.172 482.474,695.092 498.524,671.902C498.644,671.732 498.774,671.563 498.884,671.392C499.664,670.262 500.414,669.103 501.134,667.922C501.244,667.752 501.354,667.583 501.464,667.402C502.144,667.242 502.964,664.422 503.804,659.823C503.904,659.262 504.004,658.692 504.104,658.083C504.284,657.002 504.464,655.842 504.644,654.623C506.474,642.192 508.254,622.742 508.764,605.762C508.924,600.853 508.954,596.142 508.874,591.873C508.844,590.182 508.784,588.573 508.704,587.042C508.674,586.442 508.644,585.873 508.604,585.302C508.164,578.482 512.834,572.712 518.714,572.712L530.124,572.712C532.854,572.712 535.304,573.952 537.104,575.952C539.284,578.342 540.524,581.823 540.214,585.583L540.204,585.712C540.074,587.172 539.974,588.702 539.884,590.292C539.864,590.833 539.834,591.392 539.804,591.972C538.944,611.382 540.544,638.912 542.564,654.623C542.724,655.853 542.874,657.012 543.044,658.083C543.134,658.692 543.224,659.272 543.314,659.823C544.134,664.722 544.974,667.432 545.714,666.752C546.014,667.182 546.314,667.612 546.634,668.042C547.084,668.662 547.524,669.282 547.984,669.882C548.524,670.603 549.064,671.302 549.624,671.992C567.774,694.962 592.504,706.902 622.884,709.422C626.774,709.742 630.044,712.563 631.504,716.482C632.044,717.912 632.344,719.492 632.344,721.152Z" style="fill:rgb(253,207,5);fill-rule:nonzero;"/>
        <path d="M509.056,583.534C513.543,583.045 518.137,583.328 522.615,583.604C527.816,583.924 532.998,584.372 538.205,584.518C539.243,584.547 540.201,584.688 541.117,584.902C540.804,585.162 540.496,585.441 540.177,585.686C540.054,587.143 539.953,588.677 539.864,590.263C537.287,592.252 534.565,593.773 531.73,594.813C528.985,595.814 526.14,596.334 523.227,596.334C518.151,596.334 513.312,594.749 508.853,591.849C508.82,590.159 508.764,588.547 508.685,587.012C508.487,586.881 508.294,586.735 508.098,586.597C508.505,585.666 508.836,584.651 509.056,583.534Z" style="fill:rgb(221,152,39);fill-rule:nonzero;"/>
        <path d="M483.725,525.231C483.725,539.338 486.347,552.417 490.828,563.182C495.231,573.804 501.438,582.164 508.709,587.04C513.291,590.121 518.287,591.811 523.53,591.811C526.443,591.811 529.289,591.291 532.034,590.29C534.879,589.25 537.613,587.716 540.201,585.714C546.015,581.228 551.068,574.454 554.956,566.095C559.157,557.098 561.991,546.254 562.966,534.41C563.201,531.615 563.324,528.781 563.347,525.895L563.347,525.231C563.347,488.45 545.522,458.638 523.53,458.638C502.457,458.638 485.204,486.032 483.815,520.707C483.759,522.203 483.725,523.711 483.725,525.231Z" style="fill:rgb(253,207,5);fill-rule:nonzero;"/>
        <path d="M517.354,563.182C517.057,562.415 516.758,561.648 516.464,560.855C515.091,557.267 513.754,553.522 512.456,549.648C489.333,480.91 477.59,372.023 476.461,240.591C476.443,238.225 476.62,236.002 476.94,234.13C477.507,230.763 478.535,228.5 479.714,228.5L403.947,228.5C400.913,228.5 398.267,230.763 396.805,234.13C395.982,236.002 395.529,238.225 395.575,240.591C398.48,372.023 428.703,480.91 488.215,549.648C491.554,553.522 494.996,557.267 498.53,560.855C499.288,561.648 500.056,562.415 500.824,563.182C503.766,566.107 506.763,568.955 509.834,571.699C509.862,572.036 509.899,572.374 509.936,572.712L520.896,572.712C520.882,572.374 520.867,572.036 520.856,571.699C519.663,568.955 518.498,566.107 517.354,563.182Z" style="fill:rgb(253,240,178);fill-rule:nonzero;"/>
        <path d="M531.989,582.242C532,584.947 532.011,587.638 532.034,590.29C532.19,614.707 532.885,636.939 534.678,654.621C534.711,654.986 534.756,655.349 534.79,655.7C541.624,656.441 543.472,664.502 539.237,668.052C538.879,668.351 538.464,668.624 538.005,668.858C550.082,707.29 587.736,721.995 632.347,723.737L632.347,721.149C632.347,714.961 628.202,709.864 622.881,709.422C591.59,706.822 566.282,694.237 547.987,669.885C547.528,669.287 547.08,668.662 546.632,668.039C547.774,668.012 548.839,667.584 549.712,666.882C551.247,665.672 552.244,663.644 552.244,661.33C552.244,659.471 551.595,657.807 550.553,656.585C549.5,655.375 548.065,654.621 546.463,654.621L542.565,654.621C540.548,638.915 538.946,611.379 539.809,591.968C539.91,589.77 540.033,587.677 540.201,585.714C546.015,581.228 551.068,574.454 554.956,566.095C639.439,499.033 680.118,383.048 683.77,240.591C683.826,238.225 683.289,236.002 682.291,234.13L689.955,234.13L689.955,204.162L650.799,204.162C650.654,210.871 650.43,221.843 650.138,228.5C650.071,230.372 649.982,232.258 649.892,234.13C644.581,343.056 620.752,442.802 563.347,525.895C557.129,534.917 550.508,543.732 543.472,552.339C542.643,560.127 541.534,566.888 538.845,572.712C538.33,573.831 537.758,574.897 537.109,575.95C535.753,578.186 534.073,580.292 531.989,582.242Z" style="fill:rgb(221,152,39);fill-rule:nonzero;"/>
        <path d="M493.627,667.922L555.212,667.922" style="fill:none;stroke:rgb(221,152,39);stroke-width:17.8px;"/>
        <path d="M529.766,657.166L555.212,657.166" style="fill:none;stroke:rgb(221,152,39);stroke-width:17.8px;"/>
        <path d="M509.325,657.166L529.766,657.166" style="fill:none;stroke:rgb(253,207,5);stroke-width:17.8px;"/>
        <path d="M501.657,667.891L493.627,667.891C487.704,667.891 482.902,663.089 482.902,657.166C482.902,651.242 487.704,646.44 493.627,646.44L508.158,646.44C514.081,646.44 512.383,651.242 512.383,657.166C512.383,663.089 507.581,667.891 501.657,667.891Z" style="fill:rgb(221,152,39);fill-rule:nonzero;"/>
        <path d="M509.715,601.394L537.273,601.394" style="fill:none;stroke:rgb(221,152,39);stroke-width:17.8px;"/>
        <path d="M519.992,592.277L537.273,592.277" style="fill:none;stroke:rgb(221,152,39);stroke-width:17.8px;"/>
        <path d="M509.715,592.277L513.658,592.277" style="fill:none;stroke:rgb(221,152,39);stroke-width:17.8px;"/>
        <path d="M480.429,554.381L567.662,554.381" style="fill:none;stroke:rgb(221,152,39);stroke-width:17.8px;"/>
        <path d="M537.81,542.583L567.662,542.583" style="fill:none;stroke:rgb(221,152,39);stroke-width:17.8px;"/>
        <path d="M480.429,542.583L537.81,542.583" style="fill:none;stroke:rgb(253,207,5);stroke-width:17.8px;"/>
        <path d="M363.1,239.851L683.886,250.577L683.886,231.984L363.1,231.984L363.1,239.851Z" style="fill:rgb(221,152,39);fill-rule:nonzero;"/>
        <rect x="358.473" y="202.933" width="331.907" height="29.955" style="fill:rgb(253,207,5);fill-rule:nonzero;"/>
        <path d="M378.505,202.933C378.516,211.657 378.628,224.502 378.818,232.888L418.063,232.888C418.164,224.516 418.254,211.67 418.31,202.933L378.505,202.933Z" style="fill:rgb(253,240,178);fill-rule:nonzero;"/>
        <path d="M479.661,735.08C493.195,718.762 505.41,701.432 513.94,681.901C515.573,678.162 515.01,673.893 511.249,671.64C510.994,671.487 510.719,671.359 510.436,671.242C510.714,670.719 510.996,670.2 511.267,669.672C511.53,669.16 511.727,668.651 511.872,668.149L518.112,668.149C514.862,662.531 515.072,653.321 517.823,647.316C519.219,646.813 522.658,646.982 522.658,646.982C522.658,646.982 521.007,620.626 521.338,609.841C521.425,609.827 521.505,609.816 521.597,609.8C521.955,609.649 522.313,609.498 522.672,609.347C522.792,609.282 522.888,609.192 522.998,609.115C523.476,609.612 523.44,609.135 523.435,608.657C523.43,608.197 523.453,607.736 523.991,608.149C528.582,611.674 535.119,607.565 530.583,604.083C523.559,598.69 522.956,588.969 527.667,581.868C527.751,581.741 527.822,581.615 527.892,581.489L529.026,581.489C524.202,579.48 522.828,567.31 522.728,564.74C522.641,562.581 525.586,553.756 523.43,553.609C512.448,552.857 513.948,533.107 519.948,531.357C520.768,529.557 520.203,520.732 519.874,518.602C510.954,461.933 475.884,410.592 426.824,381.022C417.434,375.353 408.874,390.052 418.244,395.692C439.684,408.623 457.984,425.962 472.204,446.163C469.284,445.462 465.814,446.413 463.824,448.402C460.234,451.992 461.004,456.782 463.824,460.422C478.874,479.862 484.744,504.702 490.184,528.253C488.464,529.382 487.184,531.152 486.384,533.192C484.734,537.442 484.744,541.982 486.034,546.322C486.394,547.522 486.944,548.513 487.604,549.333C486.304,551.322 485.884,553.893 486.334,556.432C486.404,556.833 486.494,557.223 486.574,557.622C486.146,557.895 485.75,558.219 485.375,558.574C486.263,559.339 487.152,560.103 488.05,560.855C488.968,561.648 489.898,562.415 490.828,563.182C495.226,573.793 501.425,582.146 508.686,587.024C508.764,588.555 508.82,590.163 508.853,591.849L508.876,591.863L508.876,591.877C508.955,596.141 508.921,600.848 508.764,605.762C508.312,620.694 507.411,634.018 505.824,646.316C505.746,646.921 505.145,651.033 505.066,651.615C504.925,652.656 504.784,653.659 504.642,654.621C504.462,655.843 504.283,657 504.104,658.08C504.003,658.69 503.902,659.263 503.802,659.822C502.961,664.424 502.143,667.246 501.46,667.402C501.359,667.584 501.247,667.753 501.135,667.922C500.418,669.105 499.667,670.262 498.883,671.393C498.771,671.562 498.648,671.731 498.525,671.9C485.124,691.261 464.644,703.567 436.193,707.933C427.643,710.808 418.907,713.191 410.088,714.996C409.068,716.826 408.473,719.002 408.473,721.345L408.473,723.256C408.473,725.845 409.2,728.229 410.418,730.17C412.217,729.835 414.015,729.485 415.809,729.104C414.071,729.574 412.318,729.993 410.558,730.388C412.408,733.195 415.315,735.014 418.601,735.021L442.243,735.044C444.444,734.034 446.622,732.977 448.77,731.863C447.642,732.944 446.488,733.996 445.331,735.047L479.661,735.08Z" style="fill:rgb(221,152,39);fill-rule:nonzero;"/>
        <path d="M632.344,721.152L632.344,723.732C632.224,730.092 627.734,735.212 622.204,735.212L418.604,735.022C413.004,735.012 408.474,729.752 408.474,723.252L408.474,721.342C408.474,719.612 408.794,717.962 409.384,716.482L631.504,716.482C632.044,717.912 632.344,719.492 632.344,721.152Z" style="fill:rgb(191,110,40);fill-rule:nonzero;"/>
        <path d="M388.248,271.978C387.975,286.365 393.781,295.022 409.401,294.43C396.569,295.309 389.432,304.675 389.432,318.567C387.242,301.73 378.676,296.637 367.413,295.272C382.544,294.253 388.209,285.332 388.248,271.978Z" style="fill:white;fill-rule:nonzero;"/>
        <path d="M321.231,546.123C319.33,545.787 353.927,559.404 353.927,559.404C353.927,559.404 319.566,567.196 320.385,567.209L321.231,546.123Z" style="fill:rgb(3,4,4);fill-rule:nonzero;"/>
        <path d="M385.245,358.659L358.145,358.659L323.794,743.24L353.723,743.24C422.152,743.24 484.684,657.147 493.388,550.949C502.092,444.752 453.674,358.659 385.245,358.659Z" style="fill:rgb(34,26,33);fill-rule:nonzero;"/>
        <path d="M358.425,358.659C289.996,358.659 227.465,444.752 218.761,550.949C210.056,657.147 258.474,743.24 326.903,743.24C395.332,743.24 457.864,657.147 466.568,550.949C475.272,444.752 426.854,358.659 358.425,358.659Z" style="fill:rgb(38,28,33);fill-rule:nonzero;"/>
        <path d="M456.593,550.945C456.364,553.746 454.708,556.027 452.902,556.027L451.524,556.027C442.513,645.221 390.338,717.353 332.703,720.517L332.52,722.687C332.292,725.489 330.635,727.769 328.829,727.769C327.024,727.769 325.739,725.489 325.967,722.687L326.139,720.583C297.238,719.522 272.542,700.858 255.771,671.239C248.112,657.732 242.11,641.935 238.109,624.482C233.405,603.956 231.474,581.141 232.894,557.06L232.168,557.06C230.352,557.06 229.076,554.789 229.305,551.977C229.534,549.176 231.19,546.895 232.996,546.895L233.694,546.895C242.431,456.891 295.157,384.015 353.281,381.353L353.378,380.235C353.606,377.443 355.253,375.162 357.068,375.162C358.874,375.162 360.15,377.443 359.922,380.235L359.834,381.353C378.901,382.228 396.121,390.782 410.413,405.08C420.297,414.966 428.781,427.607 435.511,442.37C442.811,458.362 448.038,476.849 450.752,497.011C452.827,512.435 453.432,528.846 452.362,545.871L453.73,545.871C455.536,545.871 456.821,548.143 456.593,550.945ZM465.234,490.197C462.2,467.214 456.282,446.168 447.993,427.96C440.441,411.335 430.914,397.084 419.81,385.904C402.633,368.609 381.683,358.658 358.421,358.658C289.994,358.658 227.463,444.753 218.76,550.945C216.279,581.262 218.444,609.942 224.404,635.438C228.96,654.939 235.729,672.579 244.348,687.677C263.907,722.026 292.934,743.24 326.901,743.24C395.328,743.24 457.859,657.145 466.571,550.945C468.31,529.712 467.773,509.289 465.234,490.197Z" style="fill:rgb(76,60,74);fill-rule:nonzero;"/>
        <path d="M358.811,393.546C358.412,396.071 356.867,398.025 355.193,398.025C353.514,398.025 352.294,396.071 352.309,393.546C298.5,396.182 249.732,463.631 241.551,546.929C243.161,547.217 244.251,549.371 244.037,551.976C243.825,554.567 242.405,556.7 240.766,557.016C236.015,639.712 273.866,706.271 327.144,708.38C327.397,705.613 329.039,703.375 330.833,703.375C332.607,703.375 333.876,705.579 333.7,708.315C387.011,705.159 435.218,638.493 443.671,556.028C441.899,555.976 440.649,553.717 440.876,550.949C441.103,548.172 442.723,545.921 444.503,545.87C449.59,463.055 411.968,396.162 358.811,393.546ZM350.368,416.949L350.42,416.316C350.651,413.507 352.3,411.236 354.11,411.236C355.915,411.236 357.198,413.507 356.967,416.316L356.916,416.949C401.753,419.559 433.468,475.954 429.424,545.869L430.163,545.869C431.968,545.869 433.251,548.14 433.02,550.949C432.791,553.75 431.135,556.029 429.33,556.029L428.592,556.029C421.212,625.595 380.616,681.776 335.62,684.907L335.522,686.104C335.292,688.905 333.637,691.184 331.832,691.184C330.022,691.184 328.74,688.905 328.97,686.104L329.062,684.983C284.105,682.889 252.155,626.828 255.847,557.057L255.407,557.057C253.602,557.057 252.319,554.785 252.55,551.976C252.779,549.175 254.435,546.896 256.239,546.896L256.63,546.896C263.751,476.508 304.884,419.58 350.368,416.949Z" style="fill:rgb(38,28,33);fill-rule:nonzero;"/>
        <path d="M359.833,381.351L358.883,392.945C358.866,393.148 358.842,393.349 358.811,393.546C411.968,396.162 449.59,463.055 444.503,545.87L444.566,545.869L452.362,545.869C457.993,456.34 417.307,383.991 359.833,381.351ZM353.286,381.351C295.155,384.011 242.434,456.894 233.692,546.896L241.18,546.896C241.307,546.896 241.43,546.907 241.551,546.929C249.732,463.631 298.5,396.182 352.309,393.546C352.311,393.349 352.319,393.148 352.336,392.945L353.286,381.351ZM443.671,556.028C435.218,638.493 387.011,705.159 333.7,708.315L333.69,708.455L332.701,720.521C390.342,717.355 442.518,645.22 451.529,556.029L443.733,556.029L443.671,556.028ZM240.766,557.016C240.628,557.043 240.488,557.057 240.347,557.057L232.898,557.057C227.619,646.456 268.544,718.463 326.144,720.582L327.138,708.455L327.144,708.38C273.866,706.271 236.015,639.712 240.766,557.016Z" style="fill:white;fill-rule:nonzero;"/>
        <path d="M355.915,429.158L355.885,429.526C355.655,432.327 354,434.607 352.195,434.607C350.385,434.607 349.108,432.327 349.337,429.526L349.368,429.158C308.221,431.777 271.056,483.24 264.49,546.896L264.752,546.896C266.562,546.896 267.838,549.175 267.609,551.976C267.379,554.785 265.729,557.057 263.919,557.057L263.711,557.057C260.557,620.118 289.446,670.724 330.085,672.787C330.486,670.274 332.03,668.318 333.706,668.318C335.359,668.318 336.573,670.23 336.59,672.704C377.274,669.618 413.926,618.869 420.734,555.989C419.15,555.673 418.075,553.533 418.287,550.949C418.499,548.358 419.924,546.224 421.56,545.909C425.074,482.705 396.426,431.756 355.915,429.158ZM347.449,452.57L347.547,451.373C347.777,448.564 349.427,446.292 351.237,446.292C353.042,446.292 354.324,448.564 354.094,451.373L353.996,452.569C386.189,455.132 408.939,495.582 406.472,545.869L408.557,545.869C410.362,545.869 411.644,548.14 411.414,550.949C411.184,553.75 409.529,556.029 407.724,556.029L405.639,556.029C399.903,605.97 370.884,646.214 338.54,649.278L338.437,650.533C338.207,653.342 336.552,655.614 334.748,655.614C332.937,655.614 331.655,653.342 331.885,650.533L331.979,649.383C299.664,647.329 276.682,607.201 278.804,557.057L277.996,557.057C276.191,557.057 274.908,554.785 275.139,551.976C275.368,549.175 277.024,546.896 278.829,546.896L279.57,546.896C285.059,496.138 314.617,455.16 347.449,452.57Z" style="fill:rgb(38,28,33);fill-rule:nonzero;"/>
        <path d="M356.916,416.949L355.915,429.158C396.426,431.756 425.074,482.705 421.56,545.909C421.698,545.882 421.837,545.869 421.977,545.869L429.424,545.869C433.468,475.954 401.753,419.559 356.916,416.949ZM350.368,416.949C304.884,419.58 263.751,476.508 256.63,546.896L264.49,546.896C271.056,483.24 308.221,431.777 349.368,429.158L350.368,416.949ZM420.734,555.989C413.926,618.869 377.274,669.618 336.59,672.704C336.591,672.931 336.583,673.163 336.563,673.399L335.62,684.907C380.616,681.776 421.212,625.595 428.592,556.029L421.144,556.029C421.004,556.029 420.867,556.016 420.734,555.989ZM263.711,557.057L255.847,557.057C252.155,626.828 284.105,682.889 329.062,684.983L330.011,673.399C330.028,673.192 330.053,672.988 330.085,672.787C289.446,670.724 260.557,620.118 263.711,557.057Z" style="fill:rgb(253,207,5);fill-rule:nonzero;"/>
        <path d="M352.993,464.779C352.703,467.497 351.084,469.664 349.321,469.664C347.554,469.664 346.294,467.497 346.451,464.78C317.955,467.344 292.363,502.866 287.438,546.898C289.196,546.978 290.423,549.226 290.198,551.976C289.975,554.695 288.423,556.91 286.682,557.049C285.084,600.52 305.037,635.21 333.066,637.178C333.59,634.931 335.027,633.261 336.58,633.261C338.101,633.261 339.25,634.875 339.437,637.064C367.517,634.11 392.655,599.226 397.789,555.884C396.403,555.341 395.502,553.334 395.698,550.949C395.894,548.557 397.123,546.555 398.598,546.013C400.582,502.386 380.885,467.318 352.993,464.779ZM344.531,488.222C344.831,485.531 346.439,483.38 348.197,483.38C349.95,483.38 351.21,485.53 351.07,488.221C370.625,490.675 384.425,515.211 383.499,545.869L383.677,545.869C385.482,545.869 386.764,548.14 386.534,550.949C386.304,553.75 384.649,556.029 382.844,556.029L382.666,556.029C378.614,586.347 361.148,610.665 341.466,613.585L341.436,613.952C341.205,616.76 339.551,619.032 337.746,619.032C335.936,619.032 334.653,616.76 334.884,613.952L334.9,613.75C315.221,611.78 301.203,587.574 301.804,557.055C300.046,556.981 298.81,554.738 299.036,551.976C299.257,549.278 300.802,547.064 302.529,546.905C306.358,515.769 324.349,490.712 344.531,488.222Z" style="fill:rgb(38,28,33);fill-rule:nonzero;"/>
        <path d="M353.996,452.569L353.011,464.583L352.993,464.779C380.885,467.318 400.582,502.386 398.598,546.013C398.855,545.919 399.12,545.869 399.388,545.869L406.472,545.869C408.939,495.582 386.189,455.132 353.996,452.569ZM347.449,452.57C314.617,455.16 285.059,496.138 279.57,546.896L287.341,546.896L287.438,546.898C292.363,502.866 317.955,467.344 346.451,464.78L346.464,464.583L347.449,452.57ZM397.789,555.884C392.655,599.226 367.517,634.11 339.437,637.064C339.472,637.472 339.473,637.9 339.437,638.342L338.54,649.278C370.884,646.214 399.903,605.97 405.639,556.029L398.555,556.029C398.287,556.029 398.031,555.979 397.789,555.884ZM286.682,557.049L286.508,557.057L278.804,557.057C276.682,607.201 299.664,647.329 331.979,649.383L332.884,638.342C332.917,637.942 332.979,637.552 333.066,637.178C305.037,635.21 285.084,600.52 286.682,557.049Z" style="fill:white;fill-rule:nonzero;"/>
        <path d="M350.07,500.469L350.055,500.659C349.825,503.46 348.169,505.74 346.364,505.74C344.554,505.74 343.278,503.46 343.507,500.659L343.523,500.471C327.687,502.899 313.655,522.497 310.406,546.896L310.587,546.896C312.391,546.896 313.673,549.175 313.444,551.976C313.213,554.785 311.559,557.057 309.754,557.057L309.705,557.057C309.602,580.842 320.554,599.614 335.902,601.527L335.924,601.255C336.154,598.446 337.809,596.174 339.619,596.174C341.424,596.174 342.707,598.446 342.476,601.255L342.471,601.323C357.811,598.498 371.323,579.617 374.774,556.029L374.657,556.029C372.848,556.029 371.571,553.75 371.8,550.949C372.031,548.14 373.68,545.869 375.49,545.869L375.607,545.869C376.028,521.941 365.296,502.855 350.07,500.469ZM341.562,524.396L341.759,521.992C341.988,519.191 343.639,516.911 345.449,516.911C347.254,516.911 348.536,519.191 348.306,521.992L348.109,524.393C355.15,526.52 360.05,535.555 360.219,546.896L361.003,546.896C362.808,546.896 364.09,549.175 363.861,551.976C363.63,554.785 361.975,557.057 360.171,557.057L359.135,557.057C356.742,567.423 350.694,575.508 343.756,577.505L343.642,578.895C343.412,581.704 341.756,583.983 339.951,583.983C338.141,583.983 336.865,581.704 337.095,578.895L337.209,577.501C330.604,575.5 325.885,567.418 325.193,557.057L323.505,557.057C321.695,557.057 320.412,554.785 320.642,551.976C320.872,549.175 322.527,546.896 324.338,546.896L325.773,546.896C327.801,535.56 334.176,526.528 341.562,524.396Z" style="fill:rgb(38,28,33);fill-rule:nonzero;"/>
        <path d="M351.07,488.221L351.054,488.46L350.07,500.469C365.296,502.855 376.028,521.941 375.607,545.869L383.499,545.869C384.425,515.211 370.625,490.675 351.07,488.221ZM344.531,488.222C324.349,490.712 306.358,515.769 302.529,546.905L302.726,546.896L310.406,546.896C313.655,522.497 327.687,502.899 343.523,500.471L344.507,488.46L344.531,488.222ZM382.666,556.029L374.774,556.029C371.323,579.617 357.811,598.498 342.471,601.323L341.466,613.585C361.148,610.665 378.614,586.347 382.666,556.029ZM301.804,557.055C301.203,587.574 315.221,611.78 334.9,613.75L335.902,601.527C320.554,599.614 309.602,580.842 309.705,557.057L301.893,557.057L301.804,557.055Z" style="fill:rgb(253,207,5);fill-rule:nonzero;"/>
        <path d="M348.109,524.393L347.098,536.727C347.067,537.111 347.009,537.484 346.927,537.843C349.411,539.372 351.168,542.723 351.637,546.896L360.219,546.896C360.05,535.555 355.15,526.52 348.109,524.393ZM341.562,524.396C334.176,526.528 327.801,535.56 325.773,546.896L333.827,546.896C334.003,546.896 334.174,546.918 334.339,546.959C335.485,542.763 337.798,539.39 340.539,537.85C340.516,537.489 340.52,537.113 340.551,536.727L341.562,524.396ZM333.99,556.827C333.669,556.976 333.335,557.057 332.994,557.057L325.193,557.057C325.885,567.418 330.604,575.5 337.209,577.501L338.302,564.167L338.318,563.995C336.251,562.68 334.698,560.095 333.99,556.827ZM350.299,557.022C349.05,560.203 347.102,562.714 344.861,564.001L344.849,564.167L343.756,577.505C350.694,575.508 356.742,567.423 359.135,557.057L350.676,557.057C350.547,557.057 350.422,557.045 350.299,557.022Z" style="fill:rgb(240,75,34);fill-rule:nonzero;"/>
        <path d="M346.927,537.843C346.413,540.114 344.967,541.808 343.408,541.808C341.847,541.808 340.682,540.117 340.539,537.85C337.798,539.39 335.485,542.763 334.339,546.959C335.871,547.344 336.892,549.447 336.684,551.976C336.498,554.257 335.375,556.183 333.99,556.827C334.698,560.095 336.251,562.68 338.318,563.995C338.6,561.266 340.219,559.087 341.992,559.087C343.761,559.087 345.028,561.269 344.861,564.001C347.102,562.714 349.05,560.203 350.299,557.022C348.692,556.731 347.605,554.586 347.819,551.976C348.048,549.175 349.698,546.896 351.509,546.896L351.637,546.896C351.168,542.723 349.411,539.372 346.927,537.843Z" style="fill:white;fill-rule:nonzero;"/>
        <path d="M408.557,545.869L407.248,545.869C409.053,545.869 410.336,548.14 410.106,550.949C409.876,553.75 408.221,556.029 406.416,556.029L407.724,556.029C409.529,556.029 411.184,553.75 411.414,550.949C411.644,548.14 410.362,545.869 408.557,545.869Z" style="fill:rgb(237,31,36);fill-rule:nonzero;"/>
        <path d="M453.735,545.869L444.566,545.869L444.503,545.87C442.723,545.921 441.103,548.172 440.876,550.949C440.649,553.718 441.899,555.976 443.671,556.028L443.733,556.029L452.902,556.029C454.707,556.029 456.362,553.75 456.592,550.949C456.822,548.14 455.54,545.869 453.735,545.869Z" style="fill:rgb(239,57,35);fill-rule:nonzero;"/>
        <path d="M430.163,545.869L421.977,545.869C421.837,545.869 421.698,545.882 421.56,545.909C419.924,546.224 418.499,548.358 418.287,550.949C418.075,553.533 419.149,555.673 420.734,555.989C420.867,556.016 421.004,556.029 421.144,556.029L429.331,556.029C431.135,556.029 432.791,553.75 433.02,550.949C433.251,548.14 431.968,545.869 430.163,545.869Z" style="fill:rgb(239,57,35);fill-rule:nonzero;"/>
        <path d="M407.248,545.869L399.388,545.869C399.12,545.869 398.855,545.919 398.598,546.013C397.123,546.555 395.894,548.557 395.698,550.949C395.502,553.334 396.403,555.341 397.789,555.884C398.031,555.979 398.287,556.029 398.555,556.029L406.416,556.029C408.221,556.029 409.876,553.75 410.106,550.949C410.336,548.14 409.053,545.869 407.248,545.869Z" style="fill:rgb(239,57,35);fill-rule:nonzero;"/>
        <path d="M383.677,545.869L375.49,545.869C373.68,545.869 372.031,548.14 371.8,550.949C371.571,553.75 372.847,556.029 374.658,556.029L382.844,556.029C384.649,556.029 386.304,553.75 386.534,550.949C386.764,548.14 385.482,545.869 383.677,545.869Z" style="fill:rgb(239,57,35);fill-rule:nonzero;"/>
        <path d="M241.18,546.896L232.999,546.896C231.189,546.896 229.533,549.175 229.304,551.976C229.073,554.785 230.356,557.057 232.166,557.057L240.347,557.057C240.488,557.057 240.628,557.043 240.766,557.016C242.405,556.7 243.825,554.567 244.037,551.976C244.251,549.371 243.161,547.218 241.551,546.929C241.43,546.907 241.306,546.896 241.18,546.896Z" style="fill:rgb(239,57,35);fill-rule:nonzero;"/>
        <path d="M264.752,546.896L256.239,546.896C254.435,546.896 252.779,549.175 252.549,551.976C252.319,554.785 253.602,557.057 255.407,557.057L263.919,557.057C265.729,557.057 267.379,554.785 267.609,551.976C267.838,549.175 266.562,546.896 264.752,546.896Z" style="fill:rgb(239,57,35);fill-rule:nonzero;"/>
        <path d="M287.341,546.896L278.829,546.896C277.024,546.896 275.368,549.175 275.138,551.976C274.908,554.785 276.191,557.057 277.996,557.057L286.508,557.057L286.682,557.05C288.423,556.91 289.975,554.695 290.198,551.976C290.423,549.226 289.196,546.978 287.438,546.898L287.341,546.896Z" style="fill:rgb(239,57,35);fill-rule:nonzero;"/>
        <path d="M310.587,546.896L302.726,546.896L302.529,546.905C300.802,547.063 299.257,549.278 299.036,551.976C298.81,554.739 300.046,556.981 301.804,557.055L301.893,557.057L309.754,557.057C311.559,557.057 313.214,554.785 313.444,551.976C313.673,549.175 312.391,546.896 310.587,546.896Z" style="fill:rgb(239,57,35);fill-rule:nonzero;"/>
        <path d="M333.827,546.896L324.338,546.896C322.527,546.896 320.872,549.175 320.642,551.976C320.412,554.785 321.695,557.057 323.505,557.057L332.994,557.057C333.335,557.057 333.669,556.976 333.99,556.827C335.375,556.183 336.498,554.257 336.684,551.976C336.892,549.447 335.871,547.344 334.339,546.959C334.174,546.918 334.003,546.896 333.827,546.896Z" style="fill:rgb(240,75,34);fill-rule:nonzero;"/>
        <path d="M361.003,546.896L351.509,546.896C349.699,546.896 348.048,549.175 347.819,551.976C347.605,554.586 348.692,556.731 350.299,557.022C350.422,557.045 350.547,557.057 350.676,557.057L360.171,557.057C361.976,557.057 363.63,554.785 363.861,551.976C364.09,549.175 362.808,546.896 361.003,546.896Z" style="fill:rgb(240,75,34);fill-rule:nonzero;"/>
        <path d="M330.833,703.375C329.039,703.375 327.397,705.614 327.144,708.38L327.138,708.456L326.144,720.582L325.971,722.685C325.742,725.486 327.024,727.766 328.834,727.766C330.638,727.766 332.294,725.486 332.524,722.685L332.701,720.521L333.69,708.456L333.7,708.315C333.876,705.579 332.607,703.375 330.833,703.375Z" style="fill:rgb(239,57,35);fill-rule:nonzero;"/>
        <path d="M333.706,668.318C332.03,668.318 330.486,670.274 330.085,672.787C330.053,672.988 330.028,673.192 330.011,673.399L329.061,684.983L328.97,686.104C328.74,688.905 330.022,691.184 331.832,691.184C333.637,691.184 335.292,688.905 335.522,686.104L335.62,684.907L336.563,673.399C336.583,673.163 336.591,672.931 336.59,672.704C336.573,670.23 335.359,668.318 333.706,668.318Z" style="fill:rgb(239,57,35);fill-rule:nonzero;"/>
        <path d="M336.58,633.261C335.028,633.261 333.59,634.931 333.066,637.178C332.979,637.552 332.917,637.942 332.884,638.342L331.979,649.383L331.885,650.533C331.655,653.342 332.937,655.614 334.747,655.614C336.552,655.614 338.207,653.342 338.437,650.533L338.54,649.278L339.437,638.342C339.473,637.9 339.472,637.472 339.437,637.064C339.251,634.875 338.101,633.261 336.58,633.261Z" style="fill:rgb(239,57,35);fill-rule:nonzero;"/>
        <path d="M339.619,596.174C337.809,596.174 336.154,598.446 335.924,601.255L335.902,601.527L334.9,613.75L334.883,613.952C334.653,616.76 335.936,619.032 337.746,619.032C339.551,619.032 341.206,616.76 341.436,613.952L341.466,613.585L342.471,601.323L342.477,601.255C342.707,598.446 341.424,596.174 339.619,596.174Z" style="fill:rgb(239,57,35);fill-rule:nonzero;"/>
        <path d="M357.067,375.16C355.257,375.16 353.607,377.439 353.377,380.24L353.286,381.351L352.336,392.945C352.319,393.148 352.311,393.349 352.31,393.546C352.294,396.071 353.514,398.025 355.193,398.025C356.867,398.025 358.412,396.071 358.811,393.546C358.842,393.349 358.866,393.148 358.883,392.945L359.833,381.351L359.924,380.24C360.154,377.439 358.872,375.16 357.067,375.16Z" style="fill:rgb(239,57,35);fill-rule:nonzero;"/>
        <path d="M354.11,411.236C352.3,411.236 350.651,413.507 350.42,416.316L350.368,416.949L349.368,429.158L349.338,429.526C349.108,432.327 350.385,434.607 352.195,434.607C354,434.607 355.655,432.327 355.885,429.526L355.915,429.158L356.916,416.949L356.967,416.316C357.198,413.507 355.915,411.236 354.11,411.236Z" style="fill:rgb(239,57,35);fill-rule:nonzero;"/>
        <path d="M351.237,446.292C349.427,446.292 347.777,448.564 347.547,451.373L347.449,452.57L346.464,464.583L346.451,464.78C346.294,467.497 347.554,469.664 349.321,469.664C351.084,469.664 352.704,467.497 352.993,464.779L353.011,464.583L353.996,452.569L354.094,451.373C354.324,448.564 353.042,446.292 351.237,446.292Z" style="fill:rgb(239,57,35);fill-rule:nonzero;"/>
        <path d="M348.197,483.38C346.439,483.38 344.831,485.531 344.53,488.222L344.507,488.46L343.523,500.471L343.507,500.659C343.278,503.46 344.555,505.74 346.364,505.74C348.169,505.74 349.825,503.46 350.055,500.659L350.07,500.469L351.054,488.46L351.07,488.221C351.21,485.531 349.95,483.38 348.197,483.38Z" style="fill:rgb(239,57,35);fill-rule:nonzero;"/>
        <path d="M345.449,516.911C343.639,516.911 341.988,519.191 341.759,521.992L341.562,524.396L340.551,536.727C340.52,537.113 340.516,537.489 340.539,537.85C340.682,540.117 341.847,541.808 343.408,541.808C344.967,541.808 346.413,540.114 346.927,537.843C347.009,537.484 347.067,537.111 347.098,536.727L348.109,524.393L348.306,521.992C348.536,519.191 347.254,516.911 345.449,516.911Z" style="fill:rgb(240,75,34);fill-rule:nonzero;"/>
        <path d="M341.992,559.087C340.219,559.087 338.601,561.266 338.318,563.995L338.302,564.167L337.209,577.501L337.095,578.895C336.865,581.704 338.141,583.983 339.951,583.983C341.756,583.983 343.412,581.704 343.642,578.895L343.756,577.505L344.849,564.167L344.861,564.001C345.028,561.269 343.761,559.087 341.992,559.087Z" style="fill:rgb(240,75,34);fill-rule:nonzero;"/>
        <path d="M247.986,655.381C247.984,655.377 247.983,655.373 247.981,655.369C247.984,655.377 247.983,655.373 247.986,655.381ZM247.962,655.324C243.941,645.805 240.629,635.472 238.109,624.482L238.111,624.482C240.629,635.47 243.942,645.803 247.962,655.324Z" style="fill:rgb(26,17,22);"/>
        <path d="M244.349,687.677C235.73,672.579 228.961,654.939 224.405,635.438L238.11,624.482C240.629,635.472 243.941,645.805 247.962,655.324C247.967,655.336 247.975,655.356 247.981,655.369C247.983,655.373 247.984,655.377 247.986,655.381C250.343,660.958 252.944,666.258 255.768,671.245L244.349,687.677Z" style="fill:rgb(50,34,48);fill-rule:nonzero;"/>
        <path d="M262.004,662.583C254.855,649.955 249.255,635.174 245.546,618.85L259.81,608.047C262.964,622.219 267.782,635.036 273.966,645.967L262.004,662.583Z" style="fill:rgb(26,17,22);fill-rule:nonzero;"/>
        <path d="M255.768,671.245C252.944,666.258 250.343,660.958 247.986,655.381C247.983,655.373 247.984,655.377 247.981,655.369C247.975,655.356 247.967,655.336 247.962,655.324C243.942,645.803 240.629,635.47 238.111,624.481L245.546,618.85C249.255,635.174 254.855,649.955 262.004,662.583L255.772,671.239L255.768,671.245Z" style="fill:rgb(168,145,166);fill-rule:nonzero;"/>
        <path d="M280.198,637.309C274.52,627.265 270.107,615.464 267.245,602.417L281.515,591.609C283.816,602.505 287.447,612.347 292.159,620.695L280.198,637.309Z" style="fill:rgb(26,17,22);fill-rule:nonzero;"/>
        <path d="M273.966,645.967C267.782,635.036 262.964,622.219 259.81,608.047L267.245,602.417C270.107,615.464 274.52,627.265 280.198,637.309L273.966,645.967Z" style="fill:rgb(167,119,42);fill-rule:nonzero;"/>
        <path d="M298.396,612.032C294.187,604.57 290.966,595.747 288.959,585.971L303.248,575.149C304.678,582.781 307.113,589.657 310.354,595.421L298.396,612.032Z" style="fill:rgb(26,17,22);fill-rule:nonzero;"/>
        <path d="M292.159,620.695C287.447,612.347 283.816,602.505 281.515,591.609L288.959,585.971C290.966,595.747 294.187,604.57 298.396,612.032L292.159,620.695Z" style="fill:rgb(168,145,166);fill-rule:nonzero;"/>
        <path d="M316.589,586.761C313.853,581.881 311.832,576.015 310.711,569.497L325.31,558.44C325.765,562.83 326.954,566.763 328.707,569.928L316.589,586.761Z" style="fill:rgb(26,17,22);fill-rule:nonzero;"/>
        <path d="M310.354,595.421C307.113,589.657 304.678,582.781 303.248,575.149L310.711,569.497C311.832,576.015 313.853,581.881 316.589,586.761L310.354,595.421Z" style="fill:rgb(167,119,42);fill-rule:nonzero;"/>
        <path d="M328.707,569.928C326.954,566.763 325.765,562.83 325.31,558.44L327.137,557.057L332.994,557.057C333.335,557.057 333.669,556.976 333.99,556.827C334.299,558.254 334.77,559.55 335.373,560.668L328.707,569.928Z" style="fill:rgb(167,45,34);fill-rule:nonzero;"/>
        <path d="M335.373,560.668C334.77,559.55 334.299,558.254 333.99,556.827C335.375,556.183 336.498,554.257 336.684,551.976C336.697,551.828 336.704,551.681 336.708,551.536L339.572,552.041C339.881,552.501 340.345,552.848 340.889,553.007L335.373,560.668Z" style="fill:rgb(168,145,166);fill-rule:nonzero;"/>
        <path d="M332.994,557.057L327.137,557.057L334.857,551.21L336.708,551.536C336.704,551.681 336.697,551.828 336.684,551.976C336.498,554.257 335.375,556.183 333.99,556.827C333.669,556.976 333.335,557.057 332.994,557.057Z" style="fill:rgb(167,45,34);fill-rule:nonzero;"/>
        <path d="M341.562,553.102C341.328,553.102 341.102,553.069 340.889,553.007L341.357,552.356L339.572,552.041C339.316,551.66 339.166,551.201 339.166,550.707C339.166,549.384 340.239,548.312 341.562,548.312C342.885,548.312 343.957,549.384 343.957,550.707C343.957,552.03 342.885,553.102 341.562,553.102Z" style="fill:rgb(168,145,166);fill-rule:nonzero;"/>
        <path d="M340.889,553.007C340.345,552.848 339.881,552.501 339.572,552.041L341.357,552.356L340.889,553.007Z" style="fill:rgb(110,83,109);fill-rule:nonzero;"/>
        <path d="M450.658,496.324C450.656,496.305 450.653,496.284 450.65,496.264C450.653,496.285 450.655,496.303 450.658,496.324ZM450.645,496.229C448.189,478.454 443.775,462.002 437.714,447.423C443.779,461.999 448.191,478.455 450.645,496.229Z" style="fill:rgb(59,44,51);fill-rule:nonzero;"/>
        <path d="M450.752,497.011C450.721,496.783 450.69,496.552 450.658,496.324C450.655,496.303 450.653,496.285 450.65,496.264C450.648,496.249 450.647,496.244 450.645,496.229C448.191,478.455 443.779,461.999 437.714,447.423C430.673,430.489 421.406,416.077 410.414,405.078L419.81,385.904C430.914,397.084 440.441,411.335 447.993,427.96C456.282,446.168 462.2,467.214 465.234,490.197L450.752,497.011Z" style="fill:rgb(114,90,112);fill-rule:nonzero;"/>
        <path d="M428.007,507.719C423.768,477.012 412.134,451.292 395.682,435.14L405.366,415.379C424.542,434.461 438.074,464.677 442.958,500.68L428.007,507.719Z" style="fill:rgb(59,44,51);fill-rule:nonzero;"/>
        <path d="M442.958,500.68C438.074,464.677 424.542,434.461 405.366,415.379L410.413,405.08L410.414,405.078C421.406,416.077 430.673,430.489 437.714,447.423C443.775,462.002 448.189,478.454 450.645,496.229C450.647,496.244 450.648,496.249 450.65,496.264C450.653,496.284 450.656,496.305 450.658,496.324C450.69,496.552 450.721,496.783 450.752,497.011L442.958,500.68Z" style="fill:white;fill-rule:nonzero;"/>
        <path d="M405.251,518.432C401.991,495.797 393.241,476.911 380.938,465.224L390.628,445.451C405.66,460.074 416.306,483.448 420.21,511.389L405.251,518.432Z" style="fill:rgb(59,44,51);fill-rule:nonzero;"/>
        <path d="M420.21,511.389C416.306,483.448 405.66,460.074 390.628,445.451L395.682,435.14C412.134,451.292 423.768,477.012 428.007,507.719L420.21,511.389Z" style="fill:rgb(251,232,6);fill-rule:nonzero;"/>
        <path d="M382.49,529.146C380.207,514.586 374.338,502.546 366.183,495.333L375.884,475.537C386.766,485.693 394.529,502.235 397.454,522.102L382.49,529.146Z" style="fill:rgb(59,44,51);fill-rule:nonzero;"/>
        <path d="M397.454,522.102C394.529,502.235 386.766,485.693 375.884,475.537L380.938,465.224C393.241,476.911 401.991,495.797 405.251,518.432L397.454,522.102Z" style="fill:white;fill-rule:nonzero;"/>
        <path d="M359.486,539.976C358.176,533.577 355.204,528.487 351.221,525.864L361.115,505.673C367.852,511.342 372.733,521.031 374.682,532.822L359.486,539.976Z" style="fill:rgb(59,44,51);fill-rule:nonzero;"/>
        <path d="M374.682,532.822C372.733,521.031 367.852,511.342 361.115,505.673L366.183,495.333C374.338,502.546 380.207,514.586 382.49,529.146L374.682,532.822Z" style="fill:rgb(251,232,6);fill-rule:nonzero;"/>
        <path d="M351.055,543.945C350.247,541.166 348.792,538.991 346.927,537.843C347.009,537.484 347.067,537.111 347.098,536.727L347.339,533.784L351.221,525.864C355.204,528.487 358.176,533.577 359.486,539.976L351.055,543.945Z" style="fill:rgb(243,109,33);fill-rule:nonzero;"/>
        <path d="M345.084,546.755L343.411,541.808C344.968,541.806 346.413,540.113 346.927,537.843C348.792,538.991 350.247,541.166 351.055,543.945L345.084,546.755Z" style="fill:white;fill-rule:nonzero;"/>
        <path d="M343.411,541.808L343.409,541.803L347.339,533.784L347.098,536.727C347.067,537.111 347.009,537.484 346.927,537.843C346.413,540.113 344.968,541.806 343.411,541.808Z" style="fill:rgb(243,109,33);fill-rule:nonzero;"/>
        <path d="M118.803,516.987C122.688,517.633 124.856,515.1 123.62,511.36L120.819,502.884C119.584,499.144 115.394,495.556 111.508,494.911L75.268,488.89C71.382,488.245 69.214,490.776 70.45,494.516L73.251,502.992C74.487,506.732 78.677,510.32 82.562,510.966L118.803,516.987Z" style="fill:rgb(249,157,27);fill-rule:nonzero;"/>
        <path d="M118.823,517.031C122.705,517.698 123.95,520.823 121.589,523.975L116.216,531.153C113.855,534.306 109.458,536.472 106.443,535.967C103.429,535.461 99.403,534.788 97.496,534.471C95.589,534.153 90.862,533.304 86.989,532.583L66.241,528.72C62.369,527.999 61.381,525.037 64.046,522.136L70.714,514.88C73.379,511.98 78.735,510.152 82.617,510.818L118.823,517.031Z" style="fill:rgb(253,207,5);fill-rule:nonzero;"/>
        <path d="M331.467,551.726L75.489,513.11C74.074,512.89 73.104,511.564 73.324,510.149C73.543,508.734 74.869,507.764 76.284,507.984L332.263,546.6C333.678,546.82 334.648,548.146 334.428,549.561C334.208,550.977 332.883,551.946 331.467,551.726Z" style="fill:rgb(86,39,38);fill-rule:nonzero;"/>
        <path d="M73.324,510.149C73.543,508.734 74.869,507.764 76.284,507.984L332.263,546.6C333.678,546.82 334.648,548.146 334.428,549.561L73.324,510.149Z" style="fill:rgb(105,51,48);fill-rule:nonzero;"/>
        <path d="M114.674,523.341L100.963,535.048L94.03,533.894C102.708,529.399 114.674,523.341 114.674,523.341Z" style="fill:white;fill-rule:nonzero;"/>
        <path d="M341.357,552.356C333.62,552.982 322.447,552.584 322.447,552.584L323.04,548.671L323.794,543.705C323.794,543.705 334.715,546.176 341.885,549.156L342.011,550.922L341.357,552.356Z" style="fill:rgb(90,77,103);fill-rule:nonzero;"/>
        <path d="M342.011,550.922L323.114,548.187L323.794,543.705C323.794,543.705 334.715,546.176 341.885,549.156L342.011,550.922Z" style="fill:rgb(147,128,173);fill-rule:nonzero;"/>
    </g>
</svg>
