<svg xmlns="http://www.w3.org/2000/svg" fill-rule="evenodd" stroke-linejoin="round" stroke-miterlimit="2" clip-rule="evenodd" viewBox="0 0 5000 5000">
  <defs/>
  <path fill="#2d8ec9" d="M1958.063 2569.583c-34.491 124.67-52.925 256.046-52.925 391.694 0 332.318 110.644 639.001 297.027 885.115C1301.72 3702.47 612.776 2921.43 612.776 1980.755c0-1042.764 846.593-1889.357 1889.356-1889.357 1016.492 0 1846.571 804.462 1887.76 1810.886-263.868-253.383-622.145-409.22-1016.542-409.22-80.542 0-159.585 6.5-236.547 18.996-110.575-353.602-440.91-610.524-830.77-610.524-480.313 0-870.259 389.946-870.259 870.26 0 356.62 214.984 663.432 522.29 797.787z"/>
  <path fill="#2d8ec9" fill-rule="nonzero" d="M1152.43 4549.943l262.88-16.273c6.258 42.561 17.524 75.108 35.05 97.64 28.791 36.303 68.85 55.08 122.677 55.08 38.806 0 70.101-10.014 91.382-28.791 21.28-17.526 31.295-40.058 31.295-63.842 0-23.785-10.014-43.814-30.043-62.59-20.03-18.778-67.598-35.051-141.455-51.325-121.425-27.54-209.051-63.842-260.376-108.907-52.576-46.317-77.612-103.9-77.612-174.002 0-45.065 12.518-88.878 40.058-130.188 26.288-41.31 66.346-72.604 120.174-96.389 53.827-23.784 126.432-35.05 220.318-35.05 113.914 0 201.541 21.28 261.628 63.842 60.087 42.561 96.389 110.159 107.655 202.793l-261.628 16.273c-6.259-41.31-21.28-70.101-43.813-88.878-22.532-17.526-52.576-27.54-91.382-27.54-32.547 0-56.331 7.51-72.605 21.28-16.273 13.77-25.036 30.044-25.036 48.821 0 15.022 6.26 27.54 20.03 38.806 13.769 12.518 43.812 22.533 92.633 33.8 121.425 25.035 207.8 51.323 260.376 78.863 52.576 26.288 90.13 60.087 115.166 98.893 23.785 40.058 35.05 83.871 35.05 132.692 0 57.583-16.273 110.159-47.568 158.98-31.295 48.82-76.36 85.122-132.691 110.158-57.584 25.036-128.937 37.554-216.563 37.554-152.72 0-257.873-28.791-316.708-87.626-58.835-58.835-91.382-133.944-98.892-224.074zM2554.666 4522.403v-186.519h428.118v381.802c-82.62 56.33-153.972 93.885-217.815 113.914-62.59 20.029-137.698 30.043-224.073 30.043-106.404 0-192.779-17.525-259.124-53.827-67.598-36.303-118.922-90.13-156.476-162.735-36.303-71.353-55.08-153.973-55.08-246.606 0-97.642 20.029-182.764 60.087-255.37 40.058-72.604 100.144-126.432 177.757-163.986 60.086-28.792 142.706-43.813 245.354-43.813 98.893 0 172.75 8.762 221.57 26.288 48.82 18.777 90.13 46.316 122.677 83.87 32.547 37.555 56.331 85.124 72.605 143.959l-266.635 47.568c-11.266-33.799-30.044-60.087-56.332-77.612-26.287-18.777-60.086-27.54-100.144-27.54-61.339 0-108.907 21.281-145.21 63.843-36.302 41.31-53.828 108.907-53.828 200.289 0 96.39 17.526 165.239 53.828 207.8 36.303 41.31 87.627 61.339 152.72 61.339 31.296 0 60.087-3.756 88.88-12.518 27.539-8.763 60.086-25.037 96.388-46.317v-83.872h-185.267zM3146.787 3950.327h276.65v675.977h433.125v220.318h-709.775v-896.295z"/>
</svg>
